<?xml version="1.0" encoding="UTF-8"?>
<!DOCTYPE svg PUBLIC "-//W3C//DTD SVG 1.1//EN" "http://www.w3.org/Graphics/SVG/1.1/DTD/svg11.dtd">
<!-- Creator: CorelDRAW X7 -->
<svg xmlns="http://www.w3.org/2000/svg" xml:space="preserve" width="46.274mm" height="37.281mm" version="1.1" style="shape-rendering:geometricPrecision; text-rendering:geometricPrecision; image-rendering:optimizeQuality; fill-rule:evenodd; clip-rule:evenodd"
viewBox="0 0 7103 5722"
 xmlns:xlink="http://www.w3.org/1999/xlink">
 <defs>
  <style type="text/css">
   <![CDATA[
    .fil0 {fill:#EFFF04;fill-rule:nonzero}
   ]]>
  </style>
 </defs>
 <g id="Layer_x0020_1">
  <metadata id="CorelCorpID_0Corel-Layer"/>
  <g id="_856774544">
   <g>
    <path class="fil0" d="M2192 4084l-297 0 0 144 629 0c24,0 43,-17 43,-38l0 -68c0,-21 -19,-38 -43,-38l-222 0 0 -280 -110 0 0 280z"/>
   </g>
   <g>
    <path class="fil0" d="M2524 4913c24,0 43,-17 43,-39l0 -67c0,-22 -19,-39 -43,-39l-629 0 0 145 629 0z"/>
   </g>
   <g>
    <path class="fil0" d="M2524 4570c24,0 43,-17 43,-38l0 -68c0,-21 -19,-38 -43,-38l-629 0 0 144 629 0z"/>
   </g>
   <g>
    <path class="fil0" d="M2679 3886c2,14 4,27 4,41l0 912c0,167 -133,303 -296,303l-97 0 0 33c0,162 -138,126 -307,126l-88 0 0 421 2815 0 0 -2623 -1248 0c-173,339 -448,615 -783,787z"/>
   </g>
   <g>
    <path class="fil0" d="M118 2501l-118 0 0 1218 821 0c-377,-287 -639,-721 -703,-1218z"/>
   </g>
   <path class="fil0" d="M4313 0l-644 876c-53,72 -154,87 -226,34 -72,-53 -87,-154 -34,-226l503 -684 -2017 0 0 451c975,7 1767,818 1767,1814 0,260 -54,508 -152,732l3593 0 0 -2997 -2790 0zm-375 2128l0 -36c0,-79 64,-144 144,-143l1382 1c80,0 144,64 144,143l0 36c0,79 -65,144 -144,144l-1383 -2c-79,0 -143,-64 -143,-143z"/>
   <path class="fil0" d="M1500 1456c24,6 42,15 55,27 15,13 22,30 22,49l0 0 0 30c40,-31 80,-55 122,-73 55,-22 111,-33 170,-33 65,0 127,13 184,40 57,27 111,68 160,121l1 1c37,45 64,91 82,139l0 0c19,48 28,96 28,146l0 233 0 0 0 53c0,46 -38,84 -84,84l0 0c-47,0 -85,-38 -85,-84l0 -53c0,-117 16,-283 -50,-383 -33,-51 -83,-88 -149,-113 -16,-4 -32,-7 -46,-9 -14,-2 -28,-3 -41,-3l-9 0c-56,0 -105,14 -148,43 -43,29 -81,72 -111,131 -8,17 -14,39 -18,67 -4,29 -6,63 -6,104l0 346c0,21 -7,39 -22,53l0 0c-13,13 -32,21 -57,25l-2 1 -1 0 -4 0c-22,0 -41,-8 -55,-23 -13,-14 -22,-34 -27,-60l0 -2 0 -2 0 -759 0 -1 0 -1c3,-30 11,-53 25,-68 15,-18 35,-26 61,-26l2 0 3 0zm740 842l0 0c46,0 84,38 84,84l0 18 0 0 0 568 0 0 3 112 0 1c0,91 -36,187 -110,285l0 0 -1 2c-52,56 -108,98 -167,126 -59,29 -121,43 -187,43l-26 0c-65,0 -127,-15 -187,-45 -59,-30 -116,-75 -171,-134l-1 -1 0 -1c-34,-47 -59,-95 -75,-144 -17,-50 -26,-100 -26,-151 0,-77 17,-148 52,-213 34,-64 84,-123 152,-175l1 -1c43,-28 88,-50 133,-64 45,-15 91,-22 138,-22 60,0 119,12 176,36 44,18 87,44 129,77 0,-87 -1,-174 -1,-261l0 -38 0 0 0 -18c0,-46 38,-84 84,-84zm-693 753l0 17c0,64 16,119 49,165 33,48 83,87 150,118 18,5 34,9 50,12 16,2 31,4 46,4l20 0c62,0 115,-17 162,-50 46,-33 86,-83 118,-149 5,-20 9,-38 11,-54l0 0c3,-15 4,-28 4,-39l0 -20c0,-63 -17,-118 -50,-165 -34,-47 -85,-86 -153,-118 -20,-5 -39,-9 -54,-12 -16,-2 -30,-4 -42,-4l-13 0c-123,0 -216,66 -280,197 -6,18 -11,35 -14,52 -3,16 -4,32 -4,46z"/>
  </g>
 </g>
</svg>
