<?xml version="1.0" encoding="UTF-8"?>
<!DOCTYPE svg PUBLIC "-//W3C//DTD SVG 1.1//EN" "http://www.w3.org/Graphics/SVG/1.1/DTD/svg11.dtd">
<!-- Creator: CorelDRAW X7 -->
<svg xmlns="http://www.w3.org/2000/svg" xml:space="preserve" width="71.1337mm" height="47.4214mm" version="1.1" style="shape-rendering:geometricPrecision; text-rendering:geometricPrecision; image-rendering:optimizeQuality; fill-rule:evenodd; clip-rule:evenodd"
viewBox="0 0 96278 64184"
 xmlns:xlink="http://www.w3.org/1999/xlink">
 <defs>
  <style type="text/css">
   <![CDATA[
    .fil6 {fill:none}
    .fil11 {fill:black}
    .fil12 {fill:#04027D}
    .fil3 {fill:#0D1519}
    .fil1 {fill:#1A1A1A}
    .fil2 {fill:#2924FC}
    .fil4 {fill:#333333}
    .fil5 {fill:#4D4D4D}
    .fil9 {fill:#C4D107}
    .fil10 {fill:#D5E4F9}
    .fil8 {fill:#EFFF04}
    .fil0 {fill:#EFFF04}
    .fil7 {fill:white}
   ]]>
  </style>
 </defs>
 <g id="Layer_x0020_1">
  <metadata id="CorelCorpID_0Corel-Layer"/>
  <g id="_665109728">
   <circle class="fil0" cx="24731" cy="32515" r="4602"/>
   <g>
    <path class="fil1" d="M61194 62912c0,703 -13620,1272 -30420,1272 -16801,0 -30420,-569 -30420,-1272 0,-702 13619,-1272 30420,-1272 16800,0 30420,570 30420,1272z"/>
    <path class="fil2" d="M24689 39480l0 0c-826,0 -1496,-671 -1496,-1497l0 -1102 2993 0 0 1102c0,826 -670,1497 -1497,1497z"/>
    <polygon class="fil3" points="26186,37497 23193,37497 23193,37280 26186,37280 "/>
    <polygon class="fil3" points="26186,37962 23193,37962 23193,37746 26186,37746 "/>
    <path class="fil4" d="M23914 33005c0,449 -365,814 -814,814 -449,0 -815,-365 -815,-814 0,-450 366,-815 815,-815 449,0 814,365 814,815zm-814 -903c-498,0 -903,405 -903,903 0,498 405,903 903,903 183,0 360,-55 511,-159 131,-90 235,-212 303,-355l0 3494 89 0 0 -3959 -3 0c-39,-465 -432,-827 -900,-827z"/>
    <path class="fil4" d="M27094 33005c0,449 -366,814 -815,814 -449,0 -814,-365 -814,-814 0,-450 365,-815 814,-815 449,0 815,365 815,815zm-815 -903c-468,0 -861,362 -900,827l-3 0 0 3959 89 0 0 -3494c68,143 172,265 303,355 151,104 328,159 511,159 498,0 903,-405 903,-903 0,-498 -405,-903 -903,-903z"/>
    <path class="fil1" d="M28639 40488c0,238 -1768,431 -3950,431 -2181,0 -3949,-193 -3949,-431 0,-238 1768,-431 3949,-431 2182,0 3950,193 3950,431z"/>
    <polygon class="fil5" points="66482,34050 60044,34050 60044,27612 66482,27612 "/>
    <path class="fil4" d="M94087 36475l-26109 0c-1210,0 -2191,-981 -2191,-2191l0 -6906c0,-1210 981,-2191 2191,-2191l26109 0c1210,0 2191,981 2191,2191l0 6906c0,1210 -981,2191 -2191,2191z"/>
    <path class="fil6" d="M94087 36475l-26109 0c-1210,0 -2191,-981 -2191,-2191l0 -1961 30491 0 0 1961c0,19 0,38 0,57 -1,18 -2,37 -3,56 -1,19 -2,37 -3,56 -2,18 -3,37 -5,55 -2,19 -4,37 -6,55 -3,18 -5,37 -8,55 -3,18 -6,36 -9,54 -3,18 -7,36 -10,54 -4,18 -8,35 -12,53 -4,18 -8,35 -13,53 -4,17 -9,35 -14,52 -5,17 -10,34 -15,52 -6,17 -11,34 -17,51 -6,17 -12,34 -18,50 -6,17 -12,34 -19,50 -6,17 -13,33 -20,50 -7,16 -14,33 -21,49 -8,16 -15,32 -23,48 -8,16 -15,32 -24,48 -8,15 -16,31 -24,47 -9,15 -17,30 -26,46 -9,15 -18,30 -27,45 -9,15 -18,30 -28,45 -9,15 -19,30 -29,44 -10,15 -20,29 -30,44 -10,14 -21,28 -31,42l0 0c-11,14 -21,28 -32,42 -11,14 -22,27 -33,41 -11,13 -23,27 -34,40 -12,13 -23,26 -35,39l0 0c-12,13 -24,26 -36,39l0 0c-12,13 -24,25 -37,37l0 0c-12,13 -24,25 -37,37l0 0c-13,12 -26,24 -39,36l0 0c-13,12 -26,23 -39,35l0 0c-13,11 -27,23 -40,34l0 0c-14,11 -27,22 -41,33l0 0c-14,11 -28,21 -42,32l0 0c-70,53 -144,101 -220,145l0 0c-16,9 -31,17 -46,26l0 0c-16,8 -32,16 -47,25l0 0c-16,8 -32,16 -48,23l0 0c-16,8 -32,15 -48,23l0 0c-16,7 -33,14 -49,21l0 0c-16,7 -33,14 -50,20l0 0c-16,7 -33,13 -49,19l-1 0c-16,6 -33,12 -50,18l0 0c-17,6 -34,11 -51,17l0 0c-18,5 -35,10 -52,15l0 0m-52 14c-18,5 -35,9 -53,13l0 0c-18,4 -36,8 -53,12l0 0c-18,3 -36,7 -54,10l0 0c-18,3 -36,6 -54,9l0 0c-18,3 -37,5 -55,8l0 0c-18,2 -37,4 -55,6l0 0c-18,2 -37,4 -55,5l0 0c-19,1 -38,3 -56,3l0 0c-19,1 -38,2 -56,3l-1 0c-18,0 -37,0 -56,0"/>
    <path class="fil7" d="M30831 58890c-15496,0 -28058,-12563 -28058,-28059 0,-15496 12562,-28058 28058,-28058 15496,0 28059,12562 28059,28058 0,15496 -12563,28059 -28059,28059zm28407 -40061c-1553,-3671 -3776,-6968 -6606,-9799 -2830,-2830 -6128,-5053 -9799,-6606 -3803,-1608 -7841,-2424 -12002,-2424 -4161,0 -8199,816 -12002,2424 -3671,1553 -6968,3776 -9799,6606 -2830,2831 -5053,6128 -6606,9799 -1608,3803 -2424,7841 -2424,12002 0,4161 816,8199 2424,12002 1553,3671 3776,6968 6606,9799 2831,2830 6128,5053 9799,6606 3803,1608 7841,2424 12002,2424 4161,0 8199,-816 12002,-2424 3671,-1553 6969,-3776 9799,-6606 2831,-2831 5053,-6128 6606,-9799 1608,-3803 2424,-7841 2424,-12002 0,-4161 -816,-8199 -2424,-12002z"/>
    <path class="fil8" d="M30831 2773c15496,0 28059,12562 28059,28058 0,15496 -12563,28059 -28059,28059l0 -56117z"/>
    <path class="fil8" d="M2782 31576c0,0 -957,-12459 8720,-21084 9501,-8467 19329,-7719 19329,-7719 0,0 -17389,22604 -28049,28803z"/>
    <path class="fil9" d="M30831 2773c0,0 -13316,19752 -28049,28803 0,0 18607,-17237 24425,-28591 1,0 1645,-281 3624,-212z"/>
    <path class="fil9" d="M18504 10862c0,0 -5430,7963 -11058,13502 0,0 7644,-6233 11058,-13502z"/>
    <path class="fil9" d="M35181 5456c210,16018 204,32305 24,48324l-24 1559 -23 -1559c-181,-16020 -186,-32306 23,-48324z"/>
    <path class="fil9" d="M39462 6920c178,15084 174,30592 20,45677l-20 1473 -20 -1473c-153,-15086 -158,-30593 20,-45677z"/>
    <path class="fil9" d="M43743 8198c147,14041 142,28492 17,42535l-17 1372 -17 -1372c-126,-14043 -130,-28493 17,-42535z"/>
    <path class="fil9" d="M48023 12457c118,11615 114,23557 14,35173l-14 1134 -13 -1134c-100,-11617 -104,-23558 13,-35173z"/>
    <path class="fil9" d="M52304 18977c119,7653 116,15461 14,23115l-14 745 -13 -745c-103,-7654 -106,-15462 13,-23115z"/>
    <path class="fil9" d="M56585 24669c120,3792 117,7645 14,11437l-14 369 -13 -369c-104,-3792 -107,-7645 13,-11437z"/>
    <path class="fil5" d="M30774 58880c-15656,407 -28673,-12519 -28600,-28062 -98,-13391 9814,-25334 23078,-27639 1821,-324 3674,-469 5522,-423 -923,25 -1843,87 -2757,196 -10072,1099 -19141,7919 -22922,17276 -7474,18347 5868,38201 25679,38652z"/>
    <path class="fil5" d="M30774 2756c15656,-407 28673,12519 28599,28062 99,13391 -9813,25334 -23078,27639 -1821,325 -3673,469 -5521,423 922,-25 1843,-87 2757,-197 10072,-1099 19141,-7917 22922,-17275 7473,-18347 -5869,-38202 -25679,-38652z"/>
    <path class="fil3" d="M6648 60619l0 799 1519 719c299,141 491,443 491,775l-3849 0 0 -2293 1839 0z"/>
    <path class="fil3" d="M18998 55637l324 731 1679 43c332,8 628,206 763,510l-3520 1557 -928 -2097 1682 -744z"/>
    <path class="fil2" d="M7726 38558l-438 22061 -3014 0 -156 -16478c-1236,-1041 -2527,-2429 -2111,-4643l221 -940 5498 0z"/>
    <path class="fil7" d="M7889 24140l-404 2306c-77,441 -529,731 -1009,647 -93,-17 -183,-46 -266,-88l-293 -148 -199 1286 -1460 -349 286 -1632 99 -570 344 -1961 2902 509z"/>
    <path class="fil10" d="M5740 23896c0,0 469,1000 1938,1450l211 -1206 -2113 -370 -36 126z"/>
    <path class="fil10" d="M5917 26857l-713 -443c0,0 -29,739 623,959l90 -516z"/>
    <path class="fil11" d="M9079 23211l-3086 -763c-298,-73 -611,43 -789,294l-239 338c-240,87 -398,316 -396,570l92 1842 736 -467c-79,-43 -149,-123 -188,-230 -70,-190 -12,-386 128,-437 141,-52 311,61 380,251 3,9 5,17 7,25l279 -525 1835 321c0,0 1133,55 1241,-1219z"/>
    <path class="fil12" d="M7726 38558c0,0 5970,6496 6894,7691 923,1196 4812,9835 4812,9835l-2218 1089 -5366 -8750 -4244 -3751 122 -6114z"/>
    <path class="fil2" d="M5798 27683l5489 -1244 4002 -5389 1017 638 -1613 3506c-708,1537 -1806,2863 -3186,3844l0 0 -5079 1352 -630 -2707z"/>
    <path class="fil12" d="M6353 27558c406,505 1576,1819 2918,2075l-2843 757 -630 -2707 555 -125z"/>
    <path class="fil7" d="M4274 27719l-77 71c-1219,1115 -1801,2765 -1549,4397 292,1897 617,4466 592,6371l4486 0c0,0 259,-4179 -1884,-10839l-1568 0z"/>
    <path class="fil8" d="M5798 27683c0,0 1789,1423 4105,5834l0 1160 -1072 -738c0,0 -1975,-4534 -3315,-6340l282 84z"/>
    <path class="fil2" d="M5444 27569c0,0 3759,8436 636,11054 0,0 -2272,1256 -4885,1369l772 -6543 183 -3392c60,-1094 941,-2485 2033,-2571 374,-29 796,-12 1261,83z"/>
    <path class="fil2" d="M5444 27569l3049 6164 7334 -102 0 1258 -6125 1053c-1224,211 -2481,82 -3636,-372l-337 -132 -2540 -5560 2255 -2309z"/>
    <path class="fil12" d="M7287 35922c0,0 -638,-209 -1215,-701 -576,-492 -2476,-4452 -2476,-4452 0,0 1348,4271 2092,5064 745,793 1429,1063 1429,1063 0,0 160,-608 170,-974z"/>
    <path class="fil12" d="M6155 38558c0,0 -1763,1272 -4209,1371 0,0 2757,428 5017,-1371l-808 0z"/>
    <path class="fil7" d="M15563 21222c0,0 -172,-783 0,-930 172,-147 996,-522 996,-522 0,-1 240,693 203,914 -36,220 -577,929 -577,929l-622 -391z"/>
    <path class="fil7" d="M15827 33862l1166 -995c126,118 142,312 37,449l-238 315 1785 356c86,17 124,121 68,189l-439 547c-135,169 -347,255 -562,230l-1817 -213 0 -878z"/>
   </g>
  </g>
 </g>
</svg>
