<?xml version="1.0" encoding="UTF-8"?>
<!DOCTYPE svg PUBLIC "-//W3C//DTD SVG 1.1//EN" "http://www.w3.org/Graphics/SVG/1.1/DTD/svg11.dtd">
<!-- Creator: CorelDRAW X7 -->
<svg xmlns="http://www.w3.org/2000/svg" xml:space="preserve" width="10.7904mm" height="10.725mm" version="1.1" style="shape-rendering:geometricPrecision; text-rendering:geometricPrecision; image-rendering:optimizeQuality; fill-rule:evenodd; clip-rule:evenodd"
viewBox="0 0 119 118"
 xmlns:xlink="http://www.w3.org/1999/xlink">
 <defs>
  <style type="text/css">
   <![CDATA[
    .fil2 {fill:#2924FC}
    .fil1 {fill:#E6E6E6}
    .fil0 {fill:#EFFF04}
   ]]>
  </style>
 </defs>
 <g id="Layer_x0020_1">
  <metadata id="CorelCorpID_0Corel-Layer"/>
  <g id="_856760264">
   <polygon class="fil0" points="21,71 24,73 24,98 21,100 0,114 0,57 "/>
   <path class="fil1" d="M24 112c0,3 2,6 5,6l81 0c3,0 6,-3 6,-6l0 -53c0,-3 -3,-6 -6,-6l-81 0c-3,0 -5,3 -5,6l0 53z"/>
   <path class="fil2" d="M29 27c0,10 9,18 19,18 10,0 18,-8 18,-18 0,-10 -8,-19 -18,-19 -10,0 -19,9 -19,19z"/>
   <path class="fil1" d="M33 34c4,0 7,-3 7,-7 0,-4 -3,-8 -7,-8 -4,0 -7,4 -7,8 0,4 3,7 7,7zm15 15c4,0 7,-3 7,-8 0,-4 -3,-7 -7,-7 -4,0 -8,3 -8,7 0,5 4,8 8,8zm0 -44c-4,0 -7,3 -7,7 0,4 3,7 7,7 4,0 7,-3 7,-7 0,-4 -3,-7 -7,-7zm15 29c4,0 7,-3 7,-7 0,-4 -3,-8 -7,-8 -4,0 -8,4 -8,8 0,4 4,7 8,7zm-15 -34c15,0 26,12 26,27 0,14 -11,26 -26,26 -15,0 -27,-12 -27,-26 0,-15 12,-27 27,-27z"/>
   <path class="fil2" d="M83 31c0,8 6,14 14,14 7,0 14,-6 14,-14 0,-7 -7,-14 -14,-14 -8,0 -14,7 -14,14z"/>
   <path class="fil1" d="M84 37c4,0 6,-2 6,-6 0,-3 -2,-6 -6,-6 -3,0 -6,3 -6,6 0,4 3,6 6,6zm12 13c4,0 7,-3 7,-6 0,-4 -3,-6 -7,-6 -3,0 -6,2 -6,6 0,3 3,6 6,6zm1 -37c-4,0 -6,3 -6,6 0,3 2,6 6,6 3,0 6,-3 6,-6 0,-3 -3,-6 -6,-6zm12 24c3,0 6,-2 6,-6 0,-3 -3,-6 -6,-6 -4,0 -6,3 -6,6 0,4 2,6 6,6zm-12 -28c12,0 22,10 22,22 0,13 -10,22 -22,22 -13,0 -23,-9 -23,-22 0,-12 10,-22 23,-22z"/>
   <polygon class="fil2" points="74,107 105,107 105,67 74,67 "/>
   <polygon class="fil2" points="33,98 63,98 63,75 33,75 "/>
  </g>
 </g>
</svg>
